<svg width="115" height="55" xmlns="http://www.w3.org/2000/svg" fill="none">
 <defs>
  <clipPath id="clip0_4_179">
   <rect width="285.034" height="160" fill="white" id="svg_1"/>
  </clipPath>
  <linearGradient id="paint0_linear_4_179" x1="0.5" y1="0.46514" x2="0.5" y2="0.95518">
   <stop stop-color="#D9D9D9"/>
   <stop offset="1" stop-color="#D9D9D9" stop-opacity="0"/>
  </linearGradient>
  <linearGradient id="paint1_linear_4_179" x1="0" y1="0.49999" x2="1.00001" y2="0.49999">
   <stop stop-color="#996DFF"/>
   <stop offset="0.5" stop-color="#35E8B3"/>
   <stop offset="1" stop-color="#E2D45C"/>
  </linearGradient>
  <linearGradient id="paint2_linear_4_179" x1="0.5" y1="0.60387" x2="0.5" y2="0.98976">
   <stop stop-color="#28203E"/>
   <stop offset="1" stop-color="#121214" stop-opacity="0"/>
  </linearGradient>
  <linearGradient id="paint3_linear_4_179" x1="0.50006" y1="-0.24287" x2="0.50006" y2="0.82702">
   <stop stop-color="#A9A9AD"/>
   <stop offset="1" stop-color="#A9A9AD" stop-opacity="0"/>
  </linearGradient>
  <linearGradient id="paint4_linear_4_179" x1="0.50003" y1="-0.00426" x2="0.50003" y2="0.50549">
   <stop stop-color="#A9A9AD"/>
   <stop offset="1" stop-color="#A9A9AD" stop-opacity="0"/>
  </linearGradient>
  <linearGradient id="paint5_linear_4_179" x1="0.50005" y1="0.07095" x2="0.50005" y2="0.87069">
   <stop stop-color="#A9A9AD"/>
   <stop offset="1" stop-color="#A9A9AD" stop-opacity="0"/>
  </linearGradient>
  <linearGradient id="paint6_linear_4_179" x1="0.50003" y1="0.09474" x2="0.50003" y2="0.87401">
   <stop stop-color="#A9A9AD"/>
   <stop offset="1" stop-color="#A9A9AD" stop-opacity="0"/>
  </linearGradient>
  <linearGradient id="paint7_linear_4_179" x1="0.50002" y1="0.09123" x2="0.50002" y2="0.87352">
   <stop stop-color="#A9A9AD"/>
   <stop offset="1" stop-color="#A9A9AD" stop-opacity="0"/>
  </linearGradient>
  <linearGradient id="paint8_linear_4_179" x1="0.50006" y1="0.03428" x2="0.50006" y2="0.86559">
   <stop stop-color="#A9A9AD"/>
   <stop offset="1" stop-color="#A9A9AD" stop-opacity="0"/>
  </linearGradient>
  <linearGradient id="paint9_linear_4_179" x1="0.49999" y1="-0.03654" x2="0.49999" y2="0.85574">
   <stop stop-color="#A9A9AD"/>
   <stop offset="1" stop-color="#A9A9AD" stop-opacity="0"/>
  </linearGradient>
  <linearGradient id="paint10_linear_4_179" x1="0.93698" y1="0.7159" x2="0.21242" y2="0.72207">
   <stop stop-color="#996DFF"/>
   <stop offset="0.5" stop-color="#35E8B3"/>
   <stop offset="1" stop-color="#E2D45C"/>
  </linearGradient>
  <radialGradient id="paint11_radial_4_179" cx="0" cy="0" r="1" gradientUnits="userSpaceOnUse" gradientTransform="matrix(49.38936771685462,11.863611371568027,-23.147741177342027,69.80075813739859,55.81855072203962,49.346562084930085)">
   <stop stop-color="#171226"/>
   <stop offset="1" stop-color="#171226" stop-opacity="0"/>
  </radialGradient>
  <radialGradient id="paint12_radial_4_179" cx="0" cy="0" r="1" gradientUnits="userSpaceOnUse" gradientTransform="matrix(-10.634916397752988,-3.8352565653941895,7.483202597213676,-15.030107645892599,68.97709896720335,8.43765400585282)">
   <stop stop-color="#261945"/>
   <stop offset="1" stop-color="#261945" stop-opacity="0"/>
  </radialGradient>
  <radialGradient id="paint13_radial_4_179" cx="0" cy="0" r="1" gradientUnits="userSpaceOnUse" gradientTransform="matrix(3.0042314833030304,10.840888669591095,-21.152286204265806,4.245811915291739,108.45234938560998,36.20467101646675)">
   <stop stop-color="#191326"/>
   <stop offset="1" stop-color="#191326" stop-opacity="0"/>
  </radialGradient>
  <linearGradient id="paint14_linear_4_179" x1="0.5276" y1="0.1108" x2="0.68955" y2="0.79261">
   <stop stop-color="#996DFF"/>
   <stop offset="0.5" stop-color="#35E8B3"/>
   <stop offset="1" stop-color="#E2D45C"/>
  </linearGradient>
  <radialGradient id="paint15_radial_4_179" cx="0" cy="0" r="1" gradientUnits="userSpaceOnUse" gradientTransform="matrix(24.634585590569714,-7.363632495952743,14.367639714034453,34.815573872756204,42.84003830100755,9.255820010435784)">
   <stop stop-color="#171225"/>
   <stop offset="1" stop-color="#171225" stop-opacity="0"/>
  </radialGradient>
  <radialGradient id="paint16_radial_4_179" cx="0" cy="0" r="1" gradientUnits="userSpaceOnUse" gradientTransform="matrix(6.729451705695368,13.80679277883712,-26.9392269288154,9.510580395707962,4.746706357546884,36.71598424600249)">
   <stop stop-color="#191327"/>
   <stop offset="1" stop-color="#191327" stop-opacity="0"/>
  </radialGradient>
 </defs>
 <g>
  <title>Layer 1</title>
  <g stroke="null" clip-path="url(#clip0_4_179)" id="svg_2">
   <mask stroke="null" id="mask0_4_179" maskUnits="userSpaceOnUse" x="0" y="17" width="285" height="125">
    <rect stroke="null" y="17.0518" width="284.938" height="124.058" fill="url(#paint0_linear_4_179)" id="svg_3"/>
   </mask>
   <g stroke="null" mask="url(#mask0_4_179)" id="svg_4">
    <path stroke="null" d="m98.83188,11.25402l-6.38655,-1.81571l-26.30242,0.07003l-4.55287,-1.39201l-3.85255,1.36201l-16.46187,-0.03838l-6.52289,-2.54552l-9.48445,0l-1.46703,2.54467l-8.26631,0l-15.53495,21.05483l17.29309,16.61263l78.44486,0l17.29305,-16.61263l-14.19991,-19.24077l0.0008,0.00084l-0.00001,0zm-3.49248,35.0996l-77.64746,0l-16.58847,-15.93641l14.92246,-20.22492l8.32901,0l1.46611,-2.54471l8.73865,0l6.52082,2.54471l16.83265,0.03918l3.69948,-1.30862l4.3768,1.33866l26.31273,-0.07007l5.94756,1.69063l13.67804,18.53348l-16.58837,15.93639l0,0.00169l-0.00001,0z" fill="url(#paint1_linear_4_179)" id="svg_5"/>
   </g>
   <path stroke="null" d="m111.92857,30.41713l-16.58917,15.93547l-77.6475,0l-16.58846,-15.93547l14.92244,-20.22492l8.32904,0l1.46607,-2.54471l8.73865,0l6.52205,2.54471l16.83146,0.04003l3.69948,-1.30862l4.3764,1.33866l26.31314,-0.07007l5.94756,1.69145l13.67884,18.53348z" fill="url(#paint2_linear_4_179)" id="svg_6"/>
   <path stroke="null" d="m111.92659,30.41713l-13.67606,-18.53348l-5.94954,-1.69063l-26.31115,0.06838l-4.3764,-1.33866l-3.70146,1.30865l-16.83146,-0.03838l-6.52106,-2.54471l-8.73769,0l-1.46607,2.54471l-8.32802,0l-14.92345,20.22411l9.97933,0l7.52149,4.75817l12.18139,0l1.82377,-4.75817l7.90163,0l1.81623,-6.73247l1.80196,0l2.43446,-0.90244l-0.51077,4.56893l6.73076,3.06598l59.1421,0l-0.00001,0.00001z" fill="#4A357D" id="svg_7"/>
   <path stroke="null" d="m6.38861,27.93084l8.50151,0l1.46119,-2.38537l-3.77006,0l2.66756,-3.9801l4.37081,-1.35452l1.38081,-2.25193l-4.16012,1.23191l2.21382,-3.30368l-1.30435,-1.6773l2.42942,0l3.11833,0l0.9379,-1.53046l-6.59248,0l-11.25432,15.25146l-0.00001,0z" fill="white" id="svg_8"/>
   <path stroke="null" d="m27.64386,10.13376l-4.93527,8.57073l5.98389,3.02261l2.34805,1.03254l-3.55346,1.64224l-2.50783,5.56229l-4.02486,0l4.30415,-8.46813l-3.21536,-1.6364l-6.07894,10.55493l3.60542,2.27448l9.09734,0l4.50703,-11.76347l-6.15932,-2.88502l3.31533,-6.52228l2.96355,0l2.01681,0.72148l-2.85275,1.13346l-1.94725,4.32124l3.31926,1.51797l3.03406,-7.91932l-2.94586,-1.15934l-6.27396,0l-0.00002,0z" fill="white" id="svg_9"/>
   <path stroke="null" d="m38.73841,12.67921l-5.14695,15.25146l4.59324,0l1.81679,-6.73247l3.52024,0l4.37283,-1.62054l0.81056,-5.59986l-3.37509,-1.29859l-6.5926,0l0.00099,0zm5.90239,3.25198l-0.70548,3.32369l-3.40841,0l1.36138,-5.04602l3.11813,0l2.30122,0.79654l-2.66685,0.92495l0,0.00084l0,0.00001z" fill="white" id="svg_10"/>
   <path stroke="null" d="m50.62762,12.67921l-1.48153,13.26059l4.37085,1.99087l8.50138,0l-1.12979,-13.95286l-3.66736,-1.29859l-6.59236,0l-0.00119,0l0.00001,-0.00001zm6.65541,4.69235l0.10985,8.17289l-3.77006,0l0.50046,-11.33559l3.11852,0l2.396,0.79654l-2.35396,2.36617l-0.0008,0l-0.00001,-0.00001z" fill="white" id="svg_11"/>
   <path stroke="null" d="m63.40191,13.98365l1.77895,13.94703l4.59332,0l-1.31419,-6.73247l3.52024,0l1.70122,6.73247l4.59411,0l-2.06091,-6.43469l-2.70373,-0.9742l2.08906,-0.94412l-2.20961,-6.89845l-6.59276,0l-3.39571,1.30444zm8.08818,5.27123l-3.40841,0l-0.64481,-3.30618l-2.65971,-0.9425l2.31946,-0.7965l3.11852,0l1.27493,5.04599l0,-0.00081l0.00001,0z" fill="white" id="svg_12"/>
   <path stroke="null" d="m75.09438,14.20971l3.07054,0l5.47883,13.72097l4.59451,0l-5.63309,-12.06371l-3.21726,-1.67562l5.45662,0l-0.78994,-1.51213l-9.48445,0l0.52425,1.53049l-0.00001,0z" fill="white" id="svg_13"/>
   <path stroke="null" d="m100.20992,19.21232l-3.87594,-5.25199l-4.50806,-1.28111l-6.59236,0l3.28468,6.02518l9.37183,3.02261l2.55977,3.8183l-3.77086,0l-2.48046,-4.04932l-5.05095,-1.63643l3.31442,6.08026l5.67909,1.99087l8.50138,0l-5.16951,-7.00521l-9.39245,-2.88498l-1.31578,-2.14852l-3.45877,-1.68227l5.54585,0l2.33533,3.48465l5.02279,1.51797l-0.00001,-0.00002z" fill="white" id="svg_14"/>
   <path stroke="null" d="m61.7673,10.85176c-0.48142,0.39953 -1.02629,0.76984 -1.62509,1.10596c0.65471,0.33946 1.27692,0.72647 1.85827,1.15435c0.49292,-0.42788 1.03581,-0.8149 1.61993,-1.15435c-0.6686,-0.33612 -1.29,-0.70642 -1.85311,-1.10596l0.00001,0z" fill="#E2D45C" id="svg_15"/>
   <path stroke="null" d="m11.56903,26.04577l2.75869,-4.11689c-1.02311,0.09926 -2.03743,0.20101 -3.0429,0.30696l-3.83276,5.19445l7.08148,0l0.84768,-1.38452l-3.81218,0l-0.00001,0z" fill="url(#paint3_linear_4_179)" id="svg_16"/>
   <path stroke="null" d="m31.34838,20.64187c-1.09565,0.06089 -2.18443,0.12592 -3.26636,0.19514l0.89574,0.45208l2.94293,1.2936l0.54293,-1.41871l-1.11523,-0.52211zm-3.3908,4.11105l-2.57349,5.71157l-5.32433,0l4.45508,-8.76421l-1.07213,-0.54547c-0.52135,0.03838 -1.04171,0.07756 -1.55918,0.11843l-5.17535,8.98693l3.05563,1.9283l8.47601,0l3.52214,-9.19291l-3.80437,1.75736z" fill="url(#paint4_linear_4_179)" id="svg_17"/>
   <path stroke="null" d="m45.09288,20.07051l-1.69211,0.62721l-3.86627,0l-1.8169,6.73247l-3.34476,0l2.38239,-7.06025c2.74203,-0.12258 5.52209,-0.22268 8.33765,-0.29943l-0.00001,0z" fill="url(#paint5_linear_4_179)" id="svg_18"/>
   <path stroke="null" d="m61.38819,27.43029l-7.72334,0l-3.89657,-1.77403l0.63806,-5.70408c0.9553,-0.0167 1.91379,-0.03004 2.87623,-0.04087l-0.27046,6.13446l4.9756,0l-0.08248,-6.16699c0.44018,-0.00084 0.88115,-0.00166 1.32292,-0.00166c0.51751,0 1.03383,0.00081 1.54856,0.0025l0.61149,7.55067l-0.00001,0.00001z" fill="url(#paint6_linear_4_179)" id="svg_19"/>
   <path stroke="null" d="m77.50624,27.43023l-3.34971,0l-1.70122,-6.73247l-4.68928,0l1.31419,6.73247l-3.37232,0l-0.95927,-7.52398c2.86948,0.03004 5.70844,0.08424 8.51328,0.16099l-1.11829,0.5054l3.57893,1.28945l1.78371,5.56813z" fill="url(#paint7_linear_4_179)" id="svg_20"/>
   <path stroke="null" d="m84.12835,20.48422c-0.95847,-0.04756 -1.92171,-0.09258 -2.8901,-0.13429l2.82745,7.08027l3.30649,0l-3.24383,-6.94597l-0.00001,0z" fill="url(#paint8_linear_4_179)" id="svg_21"/>
   <path stroke="null" d="m101.32821,21.66952c-0.98267,-0.08758 -1.97248,-0.17263 -2.97021,-0.25438l3.10464,4.63066l-5.14017,0l-2.54193,-4.14942l-3.2371,-1.04922c-0.07257,-0.00503 -0.14395,-0.00918 -0.21652,-0.01337l2.57247,4.71824l5.35749,1.87829l7.32282,0l-4.25148,-5.76081z" fill="url(#paint9_linear_4_179)" id="svg_22"/>
   <path stroke="null" fill-rule="evenodd" clip-rule="evenodd" d="m46.84209,39.15374l0,-1.02904l-3.3406,1.05738l-0.00714,0l0,1.05604l0.00714,0l3.3406,1.05773l0,-1.03106l-1.71194,-0.55721l1.71194,-0.55384z" fill="#996DFF" id="svg_23"/>
   <path stroke="null" fill-rule="evenodd" clip-rule="evenodd" d="m66.19327,41.24252l0,-1.02937l1.71114,-0.55384l-1.71114,-0.55384l0,-1.02904l3.33623,1.05671l0.00753,0l0,1.05671l-0.00753,0l-3.33623,1.05165l0,0.00101l0,0.00001zm-1.43276,-4.62003l-1.96176,5.35983l1.16509,0l1.96217,-5.35983l-1.16548,0l-0.00001,0z" fill="#996DFF" id="svg_24"/>
   <path stroke="null" fill-rule="evenodd" clip-rule="evenodd" d="m51.75107,37.93031c0.33152,0.31016 0.50561,0.71887 0.48538,1.13771l0,2.28284l-1.16548,0l0,-2.0736c0.01388,-0.23085 -0.07336,-0.45799 -0.24309,-0.63787c-0.1614,-0.16031 -0.40052,-0.24874 -0.64876,-0.23963c-0.72887,0 -1.0945,0.43065 -1.0945,1.29195l0,1.65982l-1.16509,0l0,-3.74827l1.16509,0l0,0.33885c0.36959,-0.30611 0.87123,-0.46879 1.38676,-0.45056c0.48023,-0.01755 0.94658,0.14276 1.2789,0.43875l0.0008,0l0,0.00003z" fill="white" id="svg_25"/>
   <path stroke="null" fill-rule="evenodd" clip-rule="evenodd" d="m53.71918,36.0447l0,5.35949l1.16509,0l0,-5.35949l-1.16509,0z" fill="white" id="svg_26"/>
   <path stroke="null" fill-rule="evenodd" clip-rule="evenodd" d="m61.4675,41.2081l-0.97196,0l-0.95253,-2.20758l-0.96125,2.20758l-0.97038,0l-1.63263,-3.75502l1.24439,0l0.91723,2.24538l0.94579,-2.24538l0.90852,0l0.94579,2.25281l0.91723,-2.25281l1.24479,0l-1.63501,3.75502l0.00001,0z" fill="white" id="svg_27"/>
   <path stroke="null" d="m4.7502,8.75103c1.31911,-2.71151 3.98274,-4.84835 7.91448,-6.35046c3.76713,-1.43957 8.54073,-2.24026 14.1865,-2.37872c11.57379,-0.28441 25.54548,2.2361 39.33931,7.09946c0.99139,0.34945 1.97446,0.70811 2.94682,1.07591l-1.37526,0.00334c-0.58968,-0.21769 -1.18452,-0.43204 -1.78451,-0.64303c-28.26015,-9.96193 -55.49726,-9.34557 -60.7148,1.3745c-1.51115,3.10435 -1.01233,6.71995 1.14561,10.53325c5.29102,9.35639 20.56627,19.89974 40.6447,26.97744c1.94233,0.68479 3.88666,1.32198 5.8278,1.9116c11.77853,3.57985 23.41232,5.39392 33.28262,5.15125c5.5736,-0.13703 10.27439,-0.9234 13.97506,-2.33718c3.79941,-1.45125 6.36593,-3.50392 7.62935,-6.1003c1.1397,-2.34292 1.13574,-4.97676 0.13721,-7.76754l0.4263,-0.40939c1.16984,3.07597 1.15437,5.8843 -0.04997,8.35817c-1.32014,2.71147 -3.98302,4.84818 -7.91567,6.35039c-3.76689,1.43944 -8.53946,2.24032 -14.18523,2.3787c-0.59007,0.01417 -1.1861,0.0216 -1.78768,0.0216c-9.95001,0 -21.50726,-1.97404 -33.13471,-5.64569c-1.47321,-0.4644 -2.94602,-0.95647 -4.41804,-1.47555c-13.7934,-4.86235 -25.76703,-11.48712 -33.71483,-18.65427c-3.12522,-2.81825 -5.49287,-5.59901 -7.06185,-8.29216c-0.37832,-0.64807 -0.70952,-1.29029 -0.99373,-1.92665c-1.53175,-3.4288 -1.63955,-6.54233 -0.3195,-9.25467l0.00001,-0.00001z" fill="url(#paint10_linear_4_179)" id="svg_28"/>
   <path stroke="null" d="m4.7502,8.75103c1.31911,-2.71151 3.98274,-4.84835 7.91448,-6.35046c3.76713,-1.43957 8.54073,-2.24026 14.1865,-2.37872c11.57379,-0.28441 25.54548,2.2361 39.33931,7.09946c0.99139,0.34945 1.97446,0.70811 2.94682,1.07591l-1.37526,0.00334c-0.58968,-0.21769 -1.18452,-0.43204 -1.78451,-0.64303c-28.26015,-9.96193 -55.49726,-9.34557 -60.7148,1.3745c-1.51115,3.10435 -1.01233,6.71995 1.14561,10.53325c5.29102,9.35639 20.56627,19.89974 40.6447,26.97744c1.94233,0.68479 3.88666,1.32198 5.8278,1.9116c11.77853,3.57985 23.41232,5.39392 33.28262,5.15125c5.5736,-0.13703 10.27439,-0.9234 13.97506,-2.33718c3.79941,-1.45125 6.36593,-3.50392 7.62935,-6.1003c1.1397,-2.34292 1.13574,-4.97676 0.13721,-7.76754l0.4263,-0.40939c1.16984,3.07597 1.15437,5.8843 -0.04997,8.35817c-1.32014,2.71147 -3.98302,4.84818 -7.91567,6.35039c-3.76689,1.43944 -8.53946,2.24032 -14.18523,2.3787c-0.59007,0.01417 -1.1861,0.0216 -1.78768,0.0216c-9.95001,0 -21.50726,-1.97404 -33.13471,-5.64569c-1.47321,-0.4644 -2.94602,-0.95647 -4.41804,-1.47555c-13.7934,-4.86235 -25.76703,-11.48712 -33.71483,-18.65427c-3.12522,-2.81825 -5.49287,-5.59901 -7.06185,-8.29216c-0.37832,-0.64807 -0.70952,-1.29029 -0.99373,-1.92665c-1.53175,-3.4288 -1.63955,-6.54233 -0.3195,-9.25467l0.00001,-0.00001z" fill="url(#paint11_radial_4_179)" id="svg_29"/>
   <path stroke="null" d="m4.7502,8.75103c1.31911,-2.71151 3.98274,-4.84835 7.91448,-6.35046c3.76713,-1.43957 8.54073,-2.24026 14.1865,-2.37872c11.57379,-0.28441 25.54548,2.2361 39.33931,7.09946c0.99139,0.34945 1.97446,0.70811 2.94682,1.07591l-1.37526,0.00334c-0.58968,-0.21769 -1.18452,-0.43204 -1.78451,-0.64303c-28.26015,-9.96193 -55.49726,-9.34557 -60.7148,1.3745c-1.51115,3.10435 -1.01233,6.71995 1.14561,10.53325c5.29102,9.35639 20.56627,19.89974 40.6447,26.97744c1.94233,0.68479 3.88666,1.32198 5.8278,1.9116c11.77853,3.57985 23.41232,5.39392 33.28262,5.15125c5.5736,-0.13703 10.27439,-0.9234 13.97506,-2.33718c3.79941,-1.45125 6.36593,-3.50392 7.62935,-6.1003c1.1397,-2.34292 1.13574,-4.97676 0.13721,-7.76754l0.4263,-0.40939c1.16984,3.07597 1.15437,5.8843 -0.04997,8.35817c-1.32014,2.71147 -3.98302,4.84818 -7.91567,6.35039c-3.76689,1.43944 -8.53946,2.24032 -14.18523,2.3787c-0.59007,0.01417 -1.1861,0.0216 -1.78768,0.0216c-9.95001,0 -21.50726,-1.97404 -33.13471,-5.64569c-1.47321,-0.4644 -2.94602,-0.95647 -4.41804,-1.47555c-13.7934,-4.86235 -25.76703,-11.48712 -33.71483,-18.65427c-3.12522,-2.81825 -5.49287,-5.59901 -7.06185,-8.29216c-0.37832,-0.64807 -0.70952,-1.29029 -0.99373,-1.92665c-1.53175,-3.4288 -1.63955,-6.54233 -0.3195,-9.25467l0.00001,-0.00001z" fill="url(#paint12_radial_4_179)" id="svg_30"/>
   <path stroke="null" d="m4.7502,8.75103c1.31911,-2.71151 3.98274,-4.84835 7.91448,-6.35046c3.76713,-1.43957 8.54073,-2.24026 14.1865,-2.37872c11.57379,-0.28441 25.54548,2.2361 39.33931,7.09946c0.99139,0.34945 1.97446,0.70811 2.94682,1.07591l-1.37526,0.00334c-0.58968,-0.21769 -1.18452,-0.43204 -1.78451,-0.64303c-28.26015,-9.96193 -55.49726,-9.34557 -60.7148,1.3745c-1.51115,3.10435 -1.01233,6.71995 1.14561,10.53325c5.29102,9.35639 20.56627,19.89974 40.6447,26.97744c1.94233,0.68479 3.88666,1.32198 5.8278,1.9116c11.77853,3.57985 23.41232,5.39392 33.28262,5.15125c5.5736,-0.13703 10.27439,-0.9234 13.97506,-2.33718c3.79941,-1.45125 6.36593,-3.50392 7.62935,-6.1003c1.1397,-2.34292 1.13574,-4.97676 0.13721,-7.76754l0.4263,-0.40939c1.16984,3.07597 1.15437,5.8843 -0.04997,8.35817c-1.32014,2.71147 -3.98302,4.84818 -7.91567,6.35039c-3.76689,1.43944 -8.53946,2.24032 -14.18523,2.3787c-0.59007,0.01417 -1.1861,0.0216 -1.78768,0.0216c-9.95001,0 -21.50726,-1.97404 -33.13471,-5.64569c-1.47321,-0.4644 -2.94602,-0.95647 -4.41804,-1.47555c-13.7934,-4.86235 -25.76703,-11.48712 -33.71483,-18.65427c-3.12522,-2.81825 -5.49287,-5.59901 -7.06185,-8.29216c-0.37832,-0.64807 -0.70952,-1.29029 -0.99373,-1.92665c-1.53175,-3.4288 -1.63955,-6.54233 -0.3195,-9.25467l0.00001,-0.00001z" fill="url(#paint13_radial_4_179)" id="svg_31"/>
   <path stroke="null" d="m108.28105,8.75103c-1.31895,-2.71151 -3.98262,-4.84835 -7.91448,-6.35046c-3.76689,-1.43957 -8.54065,-2.24026 -14.18642,-2.37872c-11.57351,-0.28441 -25.5454,2.2361 -39.33884,7.09946c-0.99179,0.34945 -1.97485,0.70811 -2.94721,1.07591l1.37526,0.00334c0.58968,-0.21769 1.18452,-0.43204 1.78451,-0.64303c28.26023,-9.96193 55.49734,-9.34557 60.71484,1.3745c1.51128,3.10435 1.01241,6.71995 -1.14565,10.53325c-5.29086,9.35639 -20.56624,19.89974 -40.6443,26.97744c-1.94273,0.68479 -3.88705,1.32198 -5.8282,1.9116c-11.77853,3.57985 -23.41224,5.39392 -33.28278,5.15125c-5.57325,-0.13703 -10.27431,-0.9234 -13.97478,-2.33718c-3.79949,-1.45125 -6.36608,-3.50392 -7.62932,-6.1003c-1.13974,-2.34292 -1.13582,-4.97676 -0.13721,-7.76754l-0.4263,-0.40939c-1.17011,3.07597 -1.15443,5.8843 0.05,8.35817c1.32006,2.71147 3.9827,4.84818 7.91544,6.35039c3.76713,1.43944 8.53974,2.24032 14.18551,2.3787c0.58996,0.01417 1.18579,0.0216 1.78752,0.0216c9.94993,0 21.50718,-1.97404 33.13463,-5.64569c1.47321,-0.4644 2.94602,-0.95647 4.41804,-1.47555c13.79343,-4.86235 25.76708,-11.48712 33.71487,-18.65427c3.12527,-2.81825 5.49271,-5.59901 7.06188,-8.29216c0.37832,-0.64807 0.70944,-1.29029 0.99377,-1.92665c1.5315,-3.4288 1.63937,-6.54233 0.31923,-9.25467l-0.00001,-0.00001z" fill="url(#paint14_linear_4_179)" id="svg_32"/>
   <path stroke="null" d="m108.28105,8.75103c-1.31895,-2.71151 -3.98262,-4.84835 -7.91448,-6.35046c-3.76689,-1.43957 -8.54065,-2.24026 -14.18642,-2.37872c-11.57351,-0.28441 -25.5454,2.2361 -39.33884,7.09946c-0.99179,0.34945 -1.97485,0.70811 -2.94721,1.07591l1.37526,0.00334c0.58968,-0.21769 1.18452,-0.43204 1.78451,-0.64303c28.26023,-9.96193 55.49734,-9.34557 60.71484,1.3745c1.51128,3.10435 1.01241,6.71995 -1.14565,10.53325c-5.29086,9.35639 -20.56624,19.89974 -40.6443,26.97744c-1.94273,0.68479 -3.88705,1.32198 -5.8282,1.9116c-11.77853,3.57985 -23.41224,5.39392 -33.28278,5.15125c-5.57325,-0.13703 -10.27431,-0.9234 -13.97478,-2.33718c-3.79949,-1.45125 -6.36608,-3.50392 -7.62932,-6.1003c-1.13974,-2.34292 -1.13582,-4.97676 -0.13721,-7.76754l-0.4263,-0.40939c-1.17011,3.07597 -1.15443,5.8843 0.05,8.35817c1.32006,2.71147 3.9827,4.84818 7.91544,6.35039c3.76713,1.43944 8.53974,2.24032 14.18551,2.3787c0.58996,0.01417 1.18579,0.0216 1.78752,0.0216c9.94993,0 21.50718,-1.97404 33.13463,-5.64569c1.47321,-0.4644 2.94602,-0.95647 4.41804,-1.47555c13.79343,-4.86235 25.76708,-11.48712 33.71487,-18.65427c3.12527,-2.81825 5.49271,-5.59901 7.06188,-8.29216c0.37832,-0.64807 0.70944,-1.29029 0.99377,-1.92665c1.5315,-3.4288 1.63937,-6.54233 0.31923,-9.25467l-0.00001,-0.00001z" fill="url(#paint15_radial_4_179)" id="svg_33"/>
   <path stroke="null" d="m108.28105,8.75103c-1.31895,-2.71151 -3.98262,-4.84835 -7.91448,-6.35046c-3.76689,-1.43957 -8.54065,-2.24026 -14.18642,-2.37872c-11.57351,-0.28441 -25.5454,2.2361 -39.33884,7.09946c-0.99179,0.34945 -1.97485,0.70811 -2.94721,1.07591l1.37526,0.00334c0.58968,-0.21769 1.18452,-0.43204 1.78451,-0.64303c28.26023,-9.96193 55.49734,-9.34557 60.71484,1.3745c1.51128,3.10435 1.01241,6.71995 -1.14565,10.53325c-5.29086,9.35639 -20.56624,19.89974 -40.6443,26.97744c-1.94273,0.68479 -3.88705,1.32198 -5.8282,1.9116c-11.77853,3.57985 -23.41224,5.39392 -33.28278,5.15125c-5.57325,-0.13703 -10.27431,-0.9234 -13.97478,-2.33718c-3.79949,-1.45125 -6.36608,-3.50392 -7.62932,-6.1003c-1.13974,-2.34292 -1.13582,-4.97676 -0.13721,-7.76754l-0.4263,-0.40939c-1.17011,3.07597 -1.15443,5.8843 0.05,8.35817c1.32006,2.71147 3.9827,4.84818 7.91544,6.35039c3.76713,1.43944 8.53974,2.24032 14.18551,2.3787c0.58996,0.01417 1.18579,0.0216 1.78752,0.0216c9.94993,0 21.50718,-1.97404 33.13463,-5.64569c1.47321,-0.4644 2.94602,-0.95647 4.41804,-1.47555c13.79343,-4.86235 25.76708,-11.48712 33.71487,-18.65427c3.12527,-2.81825 5.49271,-5.59901 7.06188,-8.29216c0.37832,-0.64807 0.70944,-1.29029 0.99377,-1.92665c1.5315,-3.4288 1.63937,-6.54233 0.31923,-9.25467l-0.00001,-0.00001z" fill="url(#paint16_radial_4_179)" id="svg_34"/>
  </g>
 </g>
</svg>